<svg width="42" height="42" viewBox="0 0 42 42" fill="none" xmlns="http://www.w3.org/2000/svg">
<path d="M24.5 21V34.79C24.57 35.315 24.395 35.875 23.9925 36.2425C23.8306 36.4047 23.6383 36.5334 23.4266 36.6213C23.2149 36.7091 22.9879 36.7543 22.7587 36.7543C22.5295 36.7543 22.3026 36.7091 22.0909 36.6213C21.8792 36.5334 21.6869 36.4047 21.525 36.2425L18.0075 32.725C17.8167 32.5383 17.6717 32.3101 17.5836 32.0582C17.4956 31.8062 17.467 31.5373 17.5 31.2725V21H17.4475L7.36749 8.085C7.0833 7.72018 6.95507 7.2577 7.01081 6.79863C7.06656 6.33955 7.30175 5.92121 7.66499 5.635C7.99749 5.39 8.36499 5.25 8.74999 5.25H33.25C33.635 5.25 34.0025 5.39 34.335 5.635C34.6982 5.92121 34.9334 6.33955 34.9892 6.79863C35.0449 7.2577 34.9167 7.72018 34.6325 8.085L24.5525 21H24.5Z" fill="#AE7A42"/>
</svg>
