<svg width="146" height="146" viewBox="0 0 146 146" fill="none" xmlns="http://www.w3.org/2000/svg">
<mask id="mask0_236_2" style="mask-type:alpha" maskUnits="userSpaceOnUse" x="0" y="0" width="146" height="146">
<rect width="146" height="146" fill="#D9D9D9"/>
</mask>
<g mask="url(#mask0_236_2)">
<path d="M24.3333 115.583V60.8333C24.3333 58.9069 24.7642 57.0819 25.6261 55.3583C26.4879 53.6347 27.6792 52.2152 29.2 51.1L65.7 23.725C67.8292 22.1027 70.2625 21.2916 73 21.2916C75.7375 21.2916 78.1708 22.1027 80.3 23.725L116.8 51.1C118.321 52.2152 119.512 53.6347 120.374 55.3583C121.236 57.0819 121.667 58.9069 121.667 60.8333V115.583C121.667 118.929 120.475 121.793 118.093 124.176C115.71 126.559 112.846 127.75 109.5 127.75H91.25C89.5264 127.75 88.0816 127.167 86.9156 126.001C85.7497 124.835 85.1667 123.39 85.1667 121.667V91.25C85.1667 89.5263 84.5837 88.0816 83.4177 86.9156C82.2518 85.7496 80.807 85.1666 79.0833 85.1666H66.9167C65.1931 85.1666 63.7483 85.7496 62.5823 86.9156C61.4163 88.0816 60.8333 89.5263 60.8333 91.25V121.667C60.8333 123.39 60.2504 124.835 59.0844 126.001C57.9184 127.167 56.4736 127.75 54.75 127.75H36.5C33.1542 127.75 30.2899 126.559 27.9073 124.176C25.5247 121.793 24.3333 118.929 24.3333 115.583Z" fill="#AE7A42"/>
</g>
</svg>
